<?xml version="1.0" encoding="UTF-8"?>
<svg xmlns="http://www.w3.org/2000/svg" xmlns:xlink="http://www.w3.org/1999/xlink" width="733px" height="615px" viewBox="0 0 733 615" version="1.1">
<defs>
<filter id="alpha" filterUnits="objectBoundingBox" x="0%" y="0%" width="100%" height="100%">
  <feColorMatrix type="matrix" in="SourceGraphic" values="0 0 0 0 1 0 0 0 0 1 0 0 0 0 1 0 0 0 1 0"/>
</filter>
<mask id="mask0">
  <g filter="url(#alpha)">
<rect x="0" y="0" width="733" height="615" style="fill:rgb(0%,0%,0%);fill-opacity:0.160784;stroke:none;"/>
  </g>
</mask>
<clipPath id="clip1">
  <rect x="0" y="0" width="733" height="615"/>
</clipPath>
<g id="surface5" clip-path="url(#clip1)">
<path style=" stroke:none;fill-rule:nonzero;fill:rgb(13.72549%,12.156863%,12.54902%);fill-opacity:1;" d="M 414.480469 219.59375 C 372.714844 219.585938 338.066406 182.058594 335.128906 133.65625 C 335 135.808594 334.914062 137.972656 334.914062 140.164062 C 334.929688 191.207031 370.546875 232.574219 414.480469 232.574219 C 458.410156 232.574219 494.027344 191.207031 494.046875 140.164062 C 494.046875 137.972656 493.957031 135.808594 493.828125 133.65625 C 490.894531 182.058594 456.242188 219.585938 414.480469 219.59375 Z M 414.480469 219.59375 "/>
</g>
</defs>
<g id="surface1">
<path style=" stroke:none;fill-rule:nonzero;fill:rgb(18.431373%,18.039216%,25.490196%);fill-opacity:1;" d="M 576.144531 55.382812 C 574.289062 39.605469 571.96875 22.664062 562.390625 11.269531 C 556.246094 3.96875 547.804688 -0.105469 539.015625 0 C 530.226562 0.109375 521.855469 4.378906 515.847656 11.832031 C 508.871094 20.472656 505.792969 32.609375 505.511719 44.453125 C 505.230469 56.292969 507.5 68.003906 510.019531 79.484375 C 523.34375 79.792969 536.570312 76.769531 548.804688 70.613281 C 551.800781 68.914062 554.910156 67.496094 558.101562 66.371094 C 561.335938 65.417969 563.636719 67.820312 566.644531 69.496094 L 568.292969 65.828125 C 569.644531 68.746094 573.828125 67.882812 575.34375 65.074219 C 576.859375 62.265625 576.527344 58.667969 576.144531 55.382812 Z M 576.144531 55.382812 "/>
<path style=" stroke:none;fill-rule:nonzero;fill:rgb(100%,72.156863%,72.156863%);fill-opacity:1;" d="M 520.484375 122.011719 L 524.339844 99.113281 L 495.410156 84.558594 L 443.6875 55.769531 C 442.949219 50.300781 439.382812 45.925781 434.722656 44.773438 C 430.0625 43.625 425.273438 45.933594 422.683594 50.578125 C 420.09375 55.226562 420.238281 61.246094 423.050781 65.71875 C 425.863281 70.1875 430.757812 72.175781 435.355469 70.722656 L 484.601562 106.03125 Z M 520.484375 122.011719 "/>
<path style=" stroke:none;fill-rule:nonzero;fill:rgb(24.705882%,31.764706%,70.980392%);fill-opacity:1;" d="M 501.0625 118.136719 L 522.015625 93.25 L 522.429688 93.394531 C 522.691406 93.488281 548.726562 102.710938 565.324219 112.082031 C 569.121094 114.0625 571.972656 117.882812 573.121094 122.53125 C 574.8125 129.101562 572.984375 136.210938 568.472656 140.632812 C 563.835938 145.453125 557.203125 146.679688 551.507812 143.769531 Z M 501.0625 118.136719 "/>
<path style=" stroke:none;fill-rule:nonzero;fill:rgb(100%,72.156863%,72.156863%);fill-opacity:1;" d="M 500.996094 227.558594 L 559.921875 245.851562 L 571.820312 181.179688 L 517.734375 161.730469 Z M 500.996094 227.558594 "/>
<path style=" stroke:none;fill-rule:nonzero;fill:rgb(24.705882%,31.764706%,70.980392%);fill-opacity:1;" d="M 566.515625 210.003906 L 508.953125 194.625 L 497.929688 163.585938 C 496.097656 154.539062 498.980469 145.078125 505.300781 139.382812 L 526.332031 118.753906 L 537.605469 102.019531 L 536.378906 93.152344 C 535.925781 89.496094 537.777344 85.984375 540.785156 84.789062 L 555.8125 78.53125 C 559.257812 77.03125 563.113281 78.894531 564.632812 82.789062 L 566.222656 87.070312 C 566.222656 87.070312 573.019531 90.785156 576.847656 92.875 C 580.835938 94.984375 583.859375 98.964844 585.164062 103.820312 C 591.027344 125.835938 589.445312 149.621094 580.746094 170.332031 Z M 566.515625 210.003906 "/>
<path style=" stroke:none;fill-rule:nonzero;fill:rgb(94.901961%,94.901961%,94.901961%);fill-opacity:1;" d="M 54.601562 539.496094 L 26.769531 530.84375 C 22.675781 513.917969 22.203125 496.089844 25.386719 478.902344 C 37.53125 506.789062 70.140625 512.046875 89.457031 533.792969 C 101.570312 547.640625 107.609375 567.140625 105.863281 586.78125 L 112.527344 609.222656 C 85.140625 607.964844 59.601562 592.835938 42.636719 567.820312 C 37.996094 560.832031 34.128906 553.195312 31.125 545.082031 C 42.773438 543.101562 54.601562 539.496094 54.601562 539.496094 Z M 54.601562 539.496094 "/>
<path style=" stroke:none;fill-rule:nonzero;fill:rgb(90.196078%,90.196078%,90.196078%);fill-opacity:1;" d="M 400.375 615.527344 L 127.589844 615.527344 C 112.367188 615.507812 100.03125 601.175781 100.015625 583.488281 L 100.015625 163.832031 C 100.03125 146.144531 112.367188 131.8125 127.589844 131.792969 L 400.375 131.792969 C 415.597656 131.8125 427.933594 146.144531 427.949219 163.832031 L 427.949219 583.488281 C 427.933594 601.175781 415.597656 615.507812 400.375 615.527344 Z M 400.375 615.527344 "/>
<path style=" stroke:none;fill-rule:nonzero;fill:rgb(100%,100%,100%);fill-opacity:1;" d="M 296.261719 589.550781 L 146.765625 589.550781 C 132.90625 589.53125 121.671875 576.484375 121.65625 560.378906 L 121.65625 186.941406 C 121.671875 170.835938 132.90625 157.789062 146.765625 157.769531 L 381.199219 157.769531 C 395.058594 157.789062 406.292969 170.835938 406.308594 186.941406 L 406.308594 461.695312 C 406.238281 532.273438 357.007812 589.472656 296.261719 589.550781 Z M 296.261719 589.550781 "/>
<path style=" stroke:none;fill-rule:nonzero;fill:rgb(24.705882%,31.764706%,70.980392%);fill-opacity:1;" d="M 357.8125 229.464844 L 170.152344 229.464844 C 166.769531 229.46875 164.027344 226.289062 164.023438 222.359375 C 164.019531 218.433594 166.753906 215.246094 170.136719 215.242188 L 357.8125 215.242188 C 361.195312 215.238281 363.9375 218.417969 363.941406 222.34375 C 363.945312 226.269531 361.210938 229.457031 357.828125 229.464844 Z M 357.8125 229.464844 "/>
<path style=" stroke:none;fill-rule:nonzero;fill:rgb(24.705882%,31.764706%,70.980392%);fill-opacity:1;" d="M 357.8125 257.5625 L 170.152344 257.5625 C 166.769531 257.5625 164.03125 254.378906 164.03125 250.449219 C 164.03125 246.523438 166.769531 243.339844 170.152344 243.339844 L 357.8125 243.339844 C 361.195312 243.339844 363.933594 246.523438 363.933594 250.449219 C 363.933594 254.378906 361.195312 257.5625 357.8125 257.5625 Z M 357.8125 257.5625 "/>
<path style=" stroke:none;fill-rule:nonzero;fill:rgb(24.705882%,31.764706%,70.980392%);fill-opacity:1;" d="M 251.5 285.660156 L 170.152344 285.660156 C 166.769531 285.660156 164.03125 282.476562 164.03125 278.550781 C 164.03125 274.621094 166.769531 271.4375 170.152344 271.4375 L 251.5 271.4375 C 254.878906 271.4375 257.617188 274.621094 257.617188 278.550781 C 257.617188 282.476562 254.878906 285.660156 251.5 285.660156 Z M 251.5 285.660156 "/>
<path style=" stroke:none;fill-rule:nonzero;fill:rgb(89.411765%,89.411765%,89.411765%);fill-opacity:1;" d="M 357.8125 344.507812 L 170.152344 344.507812 C 166.769531 344.515625 164.027344 341.335938 164.023438 337.40625 C 164.019531 333.480469 166.753906 330.292969 170.136719 330.289062 L 357.8125 330.289062 C 361.195312 330.28125 363.9375 333.460938 363.941406 337.390625 C 363.945312 341.316406 361.210938 344.503906 357.828125 344.507812 Z M 357.8125 344.507812 "/>
<path style=" stroke:none;fill-rule:nonzero;fill:rgb(89.411765%,89.411765%,89.411765%);fill-opacity:1;" d="M 357.8125 372.609375 L 170.152344 372.609375 C 166.769531 372.609375 164.03125 369.425781 164.03125 365.496094 C 164.03125 361.570312 166.769531 358.386719 170.152344 358.386719 L 357.8125 358.386719 C 361.195312 358.386719 363.933594 361.570312 363.933594 365.496094 C 363.933594 369.425781 361.195312 372.609375 357.8125 372.609375 Z M 357.8125 372.609375 "/>
<path style=" stroke:none;fill-rule:nonzero;fill:rgb(89.411765%,89.411765%,89.411765%);fill-opacity:1;" d="M 251.5 400.707031 L 170.152344 400.707031 C 166.769531 400.707031 164.03125 397.523438 164.03125 393.59375 C 164.03125 389.667969 166.769531 386.484375 170.152344 386.484375 L 251.5 386.484375 C 254.878906 386.484375 257.617188 389.667969 257.617188 393.59375 C 257.617188 397.523438 254.878906 400.707031 251.5 400.707031 Z M 251.5 400.707031 "/>
<path style=" stroke:none;fill-rule:nonzero;fill:rgb(89.411765%,89.411765%,89.411765%);fill-opacity:1;" d="M 357.8125 459.554688 L 170.152344 459.554688 C 166.769531 459.5625 164.027344 456.382812 164.023438 452.453125 C 164.019531 448.527344 166.753906 445.339844 170.136719 445.335938 L 357.8125 445.335938 C 361.195312 445.328125 363.9375 448.507812 363.941406 452.4375 C 363.945312 456.363281 361.210938 459.550781 357.828125 459.554688 Z M 357.8125 459.554688 "/>
<path style=" stroke:none;fill-rule:nonzero;fill:rgb(89.411765%,89.411765%,89.411765%);fill-opacity:1;" d="M 357.8125 487.65625 L 170.152344 487.65625 C 166.769531 487.65625 164.03125 484.46875 164.03125 480.542969 C 164.03125 476.617188 166.769531 473.433594 170.152344 473.433594 L 357.8125 473.433594 C 361.195312 473.433594 363.933594 476.617188 363.933594 480.542969 C 363.933594 484.46875 361.195312 487.65625 357.8125 487.65625 Z M 357.8125 487.65625 "/>
<path style=" stroke:none;fill-rule:nonzero;fill:rgb(89.411765%,89.411765%,89.411765%);fill-opacity:1;" d="M 251.5 515.753906 L 170.152344 515.753906 C 166.777344 515.746094 164.042969 512.5625 164.042969 508.640625 C 164.042969 504.71875 166.777344 501.539062 170.152344 501.53125 L 251.5 501.53125 C 254.875 501.539062 257.605469 504.71875 257.605469 508.640625 C 257.605469 512.5625 254.875 515.746094 251.5 515.753906 Z M 251.5 515.753906 "/>
<path style=" stroke:none;fill-rule:nonzero;fill:rgb(24.705882%,31.764706%,70.980392%);fill-opacity:1;" d="M 494.046875 139.957031 C 494.046875 191.011719 458.421875 232.398438 414.480469 232.398438 C 370.535156 232.398438 334.914062 191.011719 334.914062 139.957031 C 334.914062 88.898438 370.535156 47.511719 414.480469 47.511719 C 458.421875 47.511719 494.046875 88.898438 494.046875 139.957031 Z M 494.046875 139.957031 "/>
<use xlink:href="#surface5" mask="url(#mask0)"/>
<path style=" stroke:none;fill-rule:nonzero;fill:rgb(100%,100%,100%);fill-opacity:1;" d="M 414.480469 185.128906 C 408.976562 185.125 404.519531 179.945312 404.515625 173.554688 L 404.515625 106.566406 C 404.511719 102.425781 406.410156 98.597656 409.492188 96.527344 C 412.578125 94.457031 416.378906 94.457031 419.464844 96.527344 C 422.546875 98.597656 424.445312 102.425781 424.441406 106.566406 L 424.441406 173.554688 C 424.4375 179.945312 419.980469 185.125 414.480469 185.128906 Z M 414.480469 185.128906 "/>
<path style=" stroke:none;fill-rule:nonzero;fill:rgb(100%,100%,100%);fill-opacity:1;" d="M 375.6875 140.058594 C 375.691406 133.667969 380.148438 128.488281 385.652344 128.480469 L 443.308594 128.480469 C 446.871094 128.476562 450.164062 130.683594 451.945312 134.265625 C 453.726562 137.851562 453.726562 142.265625 451.945312 145.851562 C 450.164062 149.433594 446.871094 151.640625 443.308594 151.636719 L 385.652344 151.636719 C 380.148438 151.628906 375.691406 146.449219 375.6875 140.058594 Z M 375.6875 140.058594 "/>
<path style=" stroke:none;fill-rule:nonzero;fill:rgb(100%,72.156863%,72.156863%);fill-opacity:1;" d="M 534.085938 159.703125 L 517.15625 147.148438 L 494.910156 173.105469 L 452.921875 218.492188 C 448.269531 217.289062 443.460938 219.546875 440.832031 224.164062 C 438.207031 228.78125 438.300781 234.804688 441.078125 239.304688 C 443.851562 243.804688 448.726562 245.851562 453.335938 244.445312 C 457.945312 243.042969 461.332031 238.480469 461.847656 232.976562 L 508.15625 192.648438 Z M 534.085938 159.703125 "/>
<path style=" stroke:none;fill-rule:nonzero;fill:rgb(24.705882%,31.764706%,70.980392%);fill-opacity:1;" d="M 523.875 179.285156 L 511.609375 147.519531 L 511.878906 147.125 C 512.046875 146.875 528.960938 122.097656 542.542969 107.582031 C 545.519531 104.203125 549.625 102.515625 553.769531 102.976562 C 559.648438 103.558594 564.671875 108.132812 566.5625 114.628906 C 568.730469 121.402344 567.285156 129.023438 562.871094 134.117188 Z M 523.875 179.285156 "/>
<path style=" stroke:none;fill-rule:nonzero;fill:rgb(100%,72.156863%,72.156863%);fill-opacity:1;" d="M 561.574219 43.949219 C 561.574219 61.027344 549.660156 74.875 534.957031 74.875 C 520.257812 74.875 508.339844 61.027344 508.339844 43.949219 C 508.339844 26.867188 520.257812 13.019531 534.957031 13.019531 C 549.660156 13.019531 561.574219 26.867188 561.574219 43.949219 Z M 561.574219 43.949219 "/>
<path style=" stroke:none;fill-rule:nonzero;fill:rgb(100%,72.156863%,72.156863%);fill-opacity:1;" d="M 493.601562 593.375 L 482.597656 593.375 L 477.359375 544.0625 L 493.601562 544.0625 Z M 493.601562 593.375 "/>
<path style=" stroke:none;fill-rule:nonzero;fill:rgb(18.431373%,18.039216%,25.490196%);fill-opacity:1;" d="M 499.410156 615.527344 L 491.519531 615.527344 L 490.109375 606.871094 L 486.503906 615.527344 L 465.574219 615.527344 C 463.511719 615.527344 461.695312 613.972656 461.082031 611.6875 C 460.46875 609.402344 461.203125 606.921875 462.898438 605.5625 L 479.613281 592.152344 L 479.613281 583.398438 L 497.191406 584.621094 Z M 499.410156 615.527344 "/>
<path style=" stroke:none;fill-rule:nonzero;fill:rgb(100%,72.156863%,72.156863%);fill-opacity:1;" d="M 631.519531 582.515625 L 621.292969 587.242188 L 600.730469 543.675781 L 615.820312 536.699219 Z M 631.519531 582.515625 "/>
<path style=" stroke:none;fill-rule:nonzero;fill:rgb(18.431373%,18.039216%,25.490196%);fill-opacity:1;" d="M 643.964844 600.601562 L 636.632812 603.992188 L 632.570312 596.554688 L 631.972656 606.144531 L 612.527344 615.140625 C 610.613281 616.023438 608.429688 615.359375 607.132812 613.503906 C 605.835938 611.644531 605.730469 609.019531 606.871094 607.03125 L 618.132812 587.386719 L 615.34375 579.257812 L 632.066406 572.835938 Z M 643.964844 600.601562 "/>
<path style=" stroke:none;fill-rule:nonzero;fill:rgb(18.431373%,18.039216%,25.490196%);fill-opacity:1;" d="M 497.847656 570.722656 L 475.085938 570.722656 L 481.375 446.476562 L 476.777344 362.257812 L 476.785156 362.191406 L 493.9375 241.46875 C 495.285156 231.949219 498.933594 223.070312 504.453125 215.863281 L 504.660156 215.589844 L 562.0625 232.058594 L 567.832031 247.351562 C 587.539062 260.96875 593.761719 337.757812 594.015625 341.027344 L 602.359375 436.753906 L 622.769531 554.078125 L 608.394531 563.066406 L 608.15625 562.511719 L 562.785156 457.6875 L 534.132812 347.148438 L 515.78125 446.636719 Z M 497.847656 570.722656 "/>
<path style=" stroke:none;fill-rule:nonzero;fill:rgb(18.431373%,18.039216%,25.490196%);fill-opacity:1;" d="M 567.921875 45.402344 C 566.980469 38.214844 565.996094 30.964844 563.785156 24.195312 C 561.570312 17.429688 558.003906 11.089844 552.886719 7.253906 C 544.785156 1.183594 534.296875 2.355469 525.214844 5.847656 C 518.191406 8.546875 511.335938 12.652344 506.382812 19.25 C 501.429688 25.847656 498.644531 35.265625 500.488281 43.894531 C 510.175781 41.234375 519.867188 38.574219 529.554688 35.914062 L 528.492188 36.785156 C 534.9375 40.519531 539.546875 47.496094 540.980469 55.695312 C 542.386719 63.992188 540.507812 72.582031 535.867188 79.09375 C 542.476562 76.371094 549.082031 73.644531 555.691406 70.921875 C 559.769531 69.242188 564.132812 67.304688 566.550781 62.992188 C 569.355469 57.996094 568.703125 51.367188 567.921875 45.402344 Z M 567.921875 45.402344 "/>
<path style=" stroke:none;fill-rule:nonzero;fill:rgb(80%,80%,80%);fill-opacity:1;" d="M 1.394531 615.230469 L 731.65625 615.230469 C 732.429688 615.230469 733.054688 614.503906 733.054688 613.609375 C 733.054688 612.710938 732.429688 611.988281 731.65625 611.988281 L 1.394531 611.988281 C 0.625 611.988281 0 612.710938 0 613.609375 C 0 614.503906 0.625 615.230469 1.394531 615.230469 Z M 1.394531 615.230469 "/>
</g>
</svg>
